<?xml version="1.0" encoding="UTF-8"?>
<svg id="Layer_1" xmlns="http://www.w3.org/2000/svg" version="1.1" viewBox="0 0 398.2 240.2">
  <!-- Generator: Adobe Illustrator 29.3.1, SVG Export Plug-In . SVG Version: 2.1.0 Build 151)  -->
  <defs>
    <style>
      .st0 {
        fill: #dc6c40;
      }

      .st1 {
        fill: #404041;
      }

      .st2 {
        fill: #4e6f94;
      }
    </style>
  </defs>
  <g>
    <path class="st1" d="M214.3,128.3c12.8,0,21.9,8.7,21.9,20.9s-9,20.8-21.9,20.8-21.7-8.7-21.7-20.8,8.9-20.9,21.7-20.9M214.3,159.5c6.1,0,10.3-3.9,10.3-10.4s-4.6-10.4-10.3-10.4-10.1,3.8-10.1,10.4,4.1,10.4,10.1,10.4"/>
    <path class="st1" d="M285.4,111.8c3.6,0,6.3,2.6,6.3,6s-2.6,6.2-6.3,6.2-6.3-2.6-6.3-6.2,2.6-6,6.3-6M279.8,129h11.2v40.2h-11.2v-40.2Z"/>
    <path class="st1" d="M296,129h7.6v-9.3h11.2v9.3h12.1v10.4h-12.1v13.1c0,4.9,1.1,6.7,4.1,6.7s4.7-.9,6.9-2.6l5.7,7.1c-2.8,2.9-8.2,6-13.7,6-8.4,0-14.2-4.6-14.2-13.8v-16.4h-7.6v-10.4h0Z"/>
    <path class="st1" d="M273.9,133.9c-2.7-2.6-8.4-6-16.5-6-11.5,0-18.3,4.8-18.3,12.6,0,12.1,19.3,12.4,23.9,15.1.8.5,1.3,1.1,1,2-.9,2.7-11.7,4-19.7-3.7l-6.5,7.8c2.9,3.8,9.3,8.3,19.7,8.3s18-3.9,18-12.8-7.4-11.2-14-13.1c-1.9-.5-3.7-.9-5.3-1.4-2.6-.7-6.1-1.4-5.5-3.4,1-3.5,12.6-1.3,16.7,2.4l6.6-7.8h-.1Z"/>
    <path class="st1" d="M149,129.1h11.2v2.1c2.1-1.9,5.9-2.9,9-2.9,12.2,0,19.8,8.4,19.8,20.4s-7.9,21.4-20.1,21.4-7.4-.6-8.7-2v16.9h-11.2v-55.9ZM160.2,143.3v12.8c1.2,1.9,3.9,3.4,7.1,3.4,6.3,0,10.1-3.9,10.1-10.1s-3.6-10.8-9.4-10.8-6.3,1.9-7.7,4.6"/>
    <g>
      <polygon id="fullLogo-8" class="st0" points="73.6 141 77 139.6 92 132.9 95.2 131.4 131.5 115.2 131.5 134.7 116.8 141 113.5 139.6 128.8 133 128.8 119.4 98.5 132.9 95.2 134.3 80.3 141 77 142.5 66.4 147.2 66.4 150.7 76.8 155.3 80.1 156.8 95.5 163.6 98.7 165.1 128.8 178.5 128.8 164.7 113.7 158.2 117 156.7 131.5 163 131.5 182.6 95.5 166.5 92.2 165.1 76.8 158.2 73.5 156.7 63.8 152.4 63.8 145.4 73.6 141"/>
      <polygon class="st0" points="98.6 148.9 113.5 142.5 110.2 141 91.9 148.9 110.3 156.8 113.6 155.3 98.6 148.9"/>
      <polygon id="fullLogo-9" class="st2" points="76.8 155.3 80.1 156.8 95.2 150.3 91.9 148.9 76.8 155.3"/>
      <polygon id="fullLogo-10" class="st2" points="80.3 141 77 142.5 91.9 148.9 95.2 147.4 80.3 141"/>
      <polygon id="fullLogo-11" class="st2" points="116.8 141 113.5 139.6 98.5 132.9 95.2 131.4 59 115.2 59 134.7 73.6 141 77 139.6 61.6 133 61.6 119.4 92 132.9 95.2 134.3 110.2 141 113.5 142.5 124.1 147.2 124.1 150.7 113.7 155.3 110.3 156.8 95 163.6 91.7 165.1 61.6 178.5 61.6 164.7 76.8 158.2 73.5 156.7 59 163 59 182.6 95 166.5 98.2 165.1 113.7 158.2 117 156.7 126.7 152.4 126.7 145.4 116.8 141"/>
    </g>
    <path class="st1" d="M339.3,132.5c0,2-1.6,3.6-3.6,3.6s-3.6-1.6-3.6-3.6,1.6-3.5,3.6-3.5,3.6,1.6,3.6,3.5ZM332.9,132.5c0,1.6,1.2,2.8,2.8,2.8s2.7-1.3,2.7-2.8-1.1-2.9-2.7-2.9-2.7,1.3-2.7,2.8h0ZM335,134.3h-.8v-3.5c.3,0,.8-.1,1.4-.1s1,.1,1.2.3.3.4.3.8-.3.7-.7.8h0c.3.2.5.4.6.9s.2.8.3.9h-.9c-.1-.1-.2-.5-.3-.9,0-.4-.3-.6-.7-.6h-.4v1.4h0ZM335,132.3h.4c.5,0,.8-.2.8-.5s-.2-.5-.8-.5-.4,0-.5,0v1h.1Z"/>
  </g>
  <g>
    <path class="st1" d="M78.1,78.9c0,1.4-.3,2.7-.9,3.7-.6,1.1-1.6,1.9-3,2.5s-3.2.9-5.4.9-3,0-4.2-.3c-1.2-.2-2.5-.5-3.8-1v-6.1c1.4.6,2.8,1.1,4.3,1.4,1.4.3,2.6.4,3.4.4s1.5,0,1.9-.3.6-.5.6-.9,0-.6-.4-.8c-.3-.2-.7-.5-1.4-.8s-1.6-.7-2.9-1.2c-1.2-.5-2.2-1.1-3.1-1.7-.8-.6-1.4-1.3-1.8-2.2s-.6-1.9-.6-3.1c0-2.2.8-3.8,2.5-4.9s3.9-1.6,6.6-1.6,2.8.2,4.1.5c1.3.3,2.6.8,4,1.4l-2.1,4.9c-1.1-.5-2.2-.9-3.3-1.2-1.1-.3-2-.4-2.7-.4s-1.1,0-1.4.2-.5.4-.5.7,0,.5.3.7c.2.2.7.4,1.3.7s1.6.7,2.8,1.2c1.3.5,2.4,1.1,3.2,1.7.8.6,1.5,1.3,1.9,2.2.4.8.6,1.9.6,3.2v.2Z"/>
    <path class="st1" d="M103.9,63.5v22.2h-5.8l-1-2.8h-.5c-.5.7-1,1.3-1.7,1.8s-1.5.8-2.3,1-1.7.3-2.6.3c-1.4,0-2.8-.3-3.9-.8-1.2-.6-2.1-1.4-2.8-2.6s-1-2.7-1-4.6v-14.4h7.6v12.1c0,1.4.2,2.5.6,3.3s1.1,1.1,2,1.1,1.7-.3,2.2-.8.9-1.3,1.1-2.3.3-2.3.3-3.7v-9.7h7.8Z"/>
    <path class="st1" d="M122.7,63.1c2.5,0,4.4,1,5.8,2.9,1.4,1.9,2.1,4.8,2.1,8.5s-.4,4.6-1.1,6.3c-.7,1.7-1.7,3-2.9,3.9-1.2.9-2.6,1.3-4.2,1.3s-1.9-.1-2.7-.4-1.3-.6-1.8-1-.9-.8-1.2-1.2h-.2c0,.5,0,1.1.2,1.6v10.2h-7.6v-31.8h6.2l1.1,2.8h.4c.4-.6.8-1.1,1.3-1.6s1.2-.9,1.9-1.2,1.6-.4,2.7-.4h0ZM119.8,69.1c-.7,0-1.3.2-1.8.5-.4.4-.7.9-.9,1.6-.2.7-.3,1.6-.3,2.6v.6c0,1.2,0,2.2.3,3s.5,1.4.9,1.8,1.1.6,1.8.6,1.2-.2,1.6-.5c.4-.4.8-.9,1-1.7.2-.8.3-1.8.3-3.1,0-1.9-.3-3.3-.8-4.1-.5-.8-1.2-1.2-2.2-1.2h0Z"/>
    <path class="st1" d="M148.5,63.1c2.5,0,4.4,1,5.8,2.9s2.1,4.8,2.1,8.5-.4,4.6-1.1,6.3c-.7,1.7-1.7,3-2.9,3.9-1.2.9-2.6,1.3-4.2,1.3s-1.9-.1-2.7-.4-1.3-.6-1.8-1-.9-.8-1.2-1.2h-.2c0,.5.1,1.1.2,1.6v10.2h-7.6v-31.8h6.2l1.1,2.8h.4c.4-.6.8-1.1,1.3-1.6s1.2-.9,1.9-1.2,1.6-.4,2.7-.4h0ZM145.5,69.1c-.7,0-1.3.2-1.8.5-.4.4-.7.9-.9,1.6s-.3,1.6-.3,2.6v.6c0,1.2,0,2.2.3,3s.5,1.4.9,1.8,1.1.6,1.8.6,1.2-.2,1.6-.5c.4-.4.8-.9,1-1.7.2-.8.3-1.8.3-3.1,0-1.9-.3-3.3-.8-4.1-.5-.8-1.2-1.2-2.2-1.2h0Z"/>
    <path class="st1" d="M181.9,74.6c0,1.9-.3,3.5-.8,4.9s-1.2,2.6-2.2,3.6-2.1,1.7-3.5,2.2-2.9.8-4.6.8-3.1-.3-4.4-.8c-1.3-.5-2.5-1.2-3.5-2.2s-1.8-2.2-2.3-3.6-.8-3.1-.8-4.9.4-4.5,1.3-6.2c.9-1.7,2.2-3,3.8-3.9,1.7-.9,3.6-1.3,6-1.3s4,.4,5.7,1.3,3,2.2,3.9,3.9c.9,1.7,1.4,3.8,1.4,6.2h0ZM167.5,74.6c0,1.3.1,2.3.3,3.2s.6,1.5,1.1,2c.5.4,1.1.7,1.9.7s1.4-.2,1.9-.7.8-1.1,1-2,.3-1.9.3-3.2-.1-2.3-.3-3.2c-.2-.8-.6-1.5-1-1.9-.5-.4-1.1-.6-1.9-.6-1.2,0-2,.5-2.5,1.4-.5,1-.8,2.4-.8,4.3Z"/>
    <path class="st1" d="M199.5,63.1h1.3c.5,0,.8,0,1,0l-.7,7.2c-.2,0-.6,0-1-.2h-1.6c-.7,0-1,0-1.5,0-.5,0-1.1.3-1.6.6-.5.3-.9.7-1.2,1.3-.3.6-.5,1.4-.5,2.4v10.9h-7.6v-22.2h5.7l1.2,3.5h.4c.4-.7.9-1.4,1.6-2s1.3-1.1,2.1-1.4,1.6-.5,2.4-.5v.2Z"/>
    <path class="st1" d="M215.9,80c.7,0,1.3,0,1.9-.2.6,0,1.2-.3,1.8-.5v5.6c-.8.4-1.7.7-2.7.9s-2.1.3-3.6.3-2.7-.2-3.8-.7c-1.1-.4-1.9-1.2-2.6-2.3-.6-1.1-.9-2.7-.9-4.7v-9.1h-2.7v-3.1l3.4-2.4,2-4.7h5v4.4h5.4v5.7h-5.4v8.6c0,.7.2,1.3.5,1.6.4.4.9.5,1.5.5h.2Z"/>
    <path class="st1" d="M233.4,63.1c2.2,0,4,.4,5.6,1.1,1.6.8,2.8,1.9,3.6,3.4s1.3,3.4,1.3,5.6v3.4h-13.7c0,1.2.5,2.1,1.3,2.9.8.7,2,1.1,3.6,1.1s2.7,0,3.8-.4c1.2-.3,2.3-.7,3.6-1.3v5.5c-1.1.6-2.2,1-3.5,1.2s-2.9.4-4.8.4-4.2-.4-6-1.2-3.1-2-4.2-3.7c-1-1.7-1.5-3.8-1.5-6.4s.5-4.8,1.4-6.6,2.2-3,3.8-3.8,3.6-1.2,5.7-1.2h0ZM233.7,68.3c-.9,0-1.7.3-2.3.9s-1,1.5-1.1,2.7h6.6c0-.7-.1-1.2-.4-1.8-.2-.5-.6-1-1.1-1.3s-1.1-.5-1.8-.5h.1Z"/>
    <path class="st1" d="M255,86.1c-2.3,0-4.2-1-5.6-2.9s-2.2-4.8-2.2-8.5.8-6.6,2.3-8.6c1.5-1.9,3.5-2.9,5.9-2.9s1.8,0,2.6.4c.7.3,1.3.7,1.9,1.2.5.5,1,1,1.4,1.7h.2c0-.6-.2-1.3-.3-2.3s-.1-1.9-.1-2.9v-5.9h7.7v30.4h-5.8l-1.6-2.8h-.3c-.4.6-.8,1.1-1.3,1.6-.5.5-1.2.9-1.9,1.2s-1.6.4-2.7.4h-.2ZM258.2,80c1.2,0,2.1-.4,2.6-1.2.5-.8.8-2,.8-3.5v-.6c0-1.7-.2-3.1-.7-4s-1.4-1.4-2.7-1.4-1.7.4-2.3,1.3-.9,2.3-.9,4.1.3,3.2.9,4,1.4,1.3,2.3,1.3h0Z"/>
    <path class="st1" d="M291.9,55.3v9.1c0,.7-.1,1.4-.2,2h.3c.6-.9,1.3-1.7,2.2-2.3.9-.6,2.1-.9,3.6-.9,2.3,0,4.2,1,5.7,2.9,1.5,2,2.2,4.8,2.2,8.5s-.3,4.6-1,6.3c-.7,1.7-1.6,3-2.8,3.9-1.2.9-2.6,1.3-4.2,1.3s-2.8-.3-3.6-.8c-.8-.5-1.5-1.1-2.1-1.8h-.5l-1.2,2.2h-6v-30.4h7.6ZM295,69.1c-.7,0-1.3.2-1.7.5-.5.3-.8.8-1,1.5s-.3,1.6-.3,2.6v1.1c0,1.7.2,3,.7,3.8s1.3,1.3,2.5,1.3,1.6-.5,2.1-1.4.7-2.3.7-4-.2-3.1-.7-4-1.2-1.3-2.2-1.3h-.1Z"/>
    <path class="st1" d="M307.4,63.5h8.1l3.8,12.7c0,.2.1.4.2.7,0,.3,0,.6.1.9s0,.6,0,.9h.2c0-.5.1-1,.2-1.4,0-.4.2-.7.2-1l3.9-12.8h7.8l-8.8,23.6c-.7,1.8-1.5,3.3-2.4,4.5s-2,2.1-3.3,2.8c-1.3.6-2.9.9-4.9.9s-1.3,0-1.8-.1c-.5,0-.9-.1-1.3-.2v-6c.3,0,.6.1,1.1.2h1.3c.8,0,1.5-.2,2.1-.5.5-.3,1-.8,1.3-1.3s.6-1.2.9-1.8v-.2l-8.6-21.8h-.1Z"/>
  </g>
</svg>