<?xml version="1.0" encoding="UTF-8"?>
<svg xmlns="http://www.w3.org/2000/svg" viewBox="0 0 2521 2911">
  <defs>
    <style>
      .cls-1 {
        fill: #fff;
      }

      .cls-2 {
        fill: #404041;
      }

      .cls-3 {
        fill: #447099;
      }

      .cls-4 {
        fill: #ee6331;
      }
    </style>
  </defs>
  <g id="Layer_1" data-name="Layer 1">
    <path class="cls-2" d="M1260.5,0L0,727.8v1455.4l1260.5,727.8,1260.5-727.8V727.8L1260.5,0h0Z"/>
    <rect class="cls-1" x="264.7" y="913.2" width="1991.6" height="1084.6" rx="202.6" ry="202.6"/>
    <g>
      <path class="cls-1" d="M1561.1,2343.1c-10.1,0-19.4-5.9-23.7-15.1l-61-131.2-63,56.8c-4.8,4.2-10.9,6.5-17.2,6.5-14.4,0-26.2-11.7-26.2-26.2v-357.3c0-14.4,11.8-26.2,26.2-26.2s14.3,3.1,19.2,8.5l245.4,268.6c7,7.6,8.8,18.7,4.6,28.2-4.2,9.5-13.6,15.6-23.9,15.6l-87.5-1.2,56.3,125.2c2.9,6.4,3,13.8.5,20.3-2.6,6.5-7.7,11.8-14.2,14.5l-25.4,10.8c-3.2,1.4-6.7,2.1-10.2,2.1l.1.1Z"/>
      <path class="cls-2" d="M1396.2,1870.6c1.6,0,3.2.6,4.5,2l245.4,268.6c3.6,3.9.8,10.3-4.5,10.3l-109-1.5c-4.5,0-7.4,4.6-5.6,8.7l65.2,145c1.4,3.1,0,6.8-3.2,8.2l-25.4,10.8c-.8.3-1.6.5-2.4.5-2.3,0-4.5-1.3-5.6-3.6l-68.9-148.2c-1.1-2.3-3.3-3.6-5.6-3.6s-2.9.5-4,1.5l-76.8,69.3c-1.2,1.1-2.6,1.5-4,1.5-3.2,0-6.2-2.5-6.2-6.2v-357.3c0-3.7,3-6.2,6.2-6.2M1396.2,1830.6c-25.5,0-46.2,20.7-46.2,46.2v357.3c0,25.5,20.7,46.2,46.2,46.2s22-4.1,30.5-11.5c.1-.1.2-.2.4-.3l42.7-38.5,49.6,106.6c7.5,16.2,24,26.7,41.8,26.7s12.3-1.2,18-3.6l25.5-10.8c11.4-4.8,20.5-14.1,25-25.6s4.2-24.5-.9-35.8l-43.4-96.6,55.8.8h.5c18.3,0,34.8-10.8,42.2-27.5,7.4-16.7,4.2-36.2-8.2-49.7l-245.4-268.6c-8.7-9.6-21.1-15-34-15h0l-.1-.3Z"/>
    </g>
  </g>
  <g id="Layer_2" data-name="Layer 2">
    <g>
      <g id="logo-mark-lt">
        <polygon id="fullLogo-8" class="cls-4" points="629.79 1561.9 646.47 1554.46 721.91 1520.85 738.36 1513.52 920.6 1432.27 920.6 1530.26 846.92 1561.9 830.25 1554.46 907.3 1521.37 907.3 1452.91 754.82 1520.85 738.36 1528.2 663.24 1561.67 646.57 1569.1 593.42 1592.79 593.42 1610.36 645.76 1633.71 662.42 1641.15 739.53 1675.49 755.9 1682.78 907.3 1750.26 907.3 1681.07 831.07 1648.35 847.75 1640.92 920.6 1672.2 920.6 1770.88 739.59 1690.2 723.24 1682.91 645.66 1648.35 628.98 1640.92 580.09 1619.11 580.09 1584.06 629.79 1561.9"/>
        <polygon class="cls-4" points="755.34 1601.22 830.15 1569.1 813.47 1561.67 721.35 1601.22 814.28 1641.15 830.94 1633.71 755.34 1601.22"/>
      </g>
      <g id="logo-mark-gt">
        <polygon id="fullLogo-9" class="cls-3" points="645.76 1633.71 662.42 1641.15 738.36 1608.53 721.37 1601.22 645.76 1633.71"/>
        <polygon id="fullLogo-10" class="cls-3" points="663.24 1561.67 646.57 1569.1 721.37 1601.22 738.36 1593.93 663.24 1561.67"/>
        <polygon id="fullLogo-11" class="cls-3" points="846.92 1561.9 830.25 1554.46 754.82 1520.85 738.36 1513.52 556.12 1432.27 556.12 1530.26 629.79 1561.9 646.47 1554.46 569.43 1521.37 569.43 1452.91 721.91 1520.85 738.36 1528.2 813.49 1561.67 830.15 1569.1 883.3 1592.79 883.3 1610.36 830.96 1633.71 814.3 1641.15 737.2 1675.49 720.83 1682.78 569.43 1750.26 569.43 1681.07 645.66 1648.35 628.98 1640.92 556.12 1672.2 556.12 1770.88 737.13 1690.2 753.48 1682.91 831.07 1648.35 847.75 1640.92 896.63 1619.11 896.63 1584.06 846.92 1561.9"/>
      </g>
      <g id="logo-text">
        <path class="cls-2" d="M1337.2,1497.73c64.48,0,109.95,43.9,109.95,104.89s-45.45,104.51-109.95,104.51-109.18-43.9-109.18-104.51,44.68-104.89,109.18-104.89M1337.2,1654.68c30.7,0,51.67-19.43,51.67-52.07s-23.31-52.44-51.67-52.44-50.9,19.04-50.9,52.44c0,29.53,20.6,52.07,50.9,52.07"/>
        <path class="cls-2" d="M1694.95,1415.13c18.27,0,31.47,13.08,31.47,30.35,0,18.14-13.2,31.2-31.47,31.2-19.81,0-31.87-13.06-31.87-31.2s13.2-30.35,31.87-30.35M1666.59,1501.54h56.34v202.03h-56.34v-202.03h0Z"/>
        <path class="cls-2" d="M1748.36,1501.54h38.47v-47.01h56.34v47.01h60.88v52.44h-60.88v65.65c0,24.47,5.44,33.8,20.6,33.8,13.2,0,23.7-4.67,34.57-13.2l28.7,35.57c-14,14.77-41.13,30.08-68.71,30.08-42.34,0-71.48-22.93-71.48-69.54v-82.37h-38.47v-52.44h-.02v.02Z"/>
        <path class="cls-2" d="M1637.43,1526.24c-13.81-13.25-42.45-30.37-83.12-30.37-57.92,0-92,23.95-92,63.23,0,60.96,97.1,62.44,120.03,75.9,4.14,2.31,6.6,5.54,5.12,10.23-4.31,13.52-58.73,20.12-98.87-18.68l-32.74,39.03c14.58,19.31,46.74,41.97,98.91,41.97,48.47,0,90.37-19.64,90.37-64.4,0-40.13-37.39-56.28-70.63-65.73-9.46-2.6-18.6-4.75-26.51-6.87-13.1-3.35-30.66-7.12-27.85-16.91,5.1-17.79,63.52-6.64,83.96,12.06l33.39-39.43h-.06v-.02Z"/>
        <path class="cls-2" d="M1008.68,1502.02h56.42v10.52c10.5-9.73,29.58-14.79,45.15-14.79,61.48,0,99.64,42.43,99.64,102.37s-39.7,107.41-101.2,107.41c-19.45,0-37.36-3.1-43.59-10.12v84.85h-56.42v-280.24h0ZM1065.11,1573.23v64.61c6.23,9.33,19.85,17.12,35.8,17.12,31.53,0,50.59-19.85,50.59-50.59,0-35.8-17.89-54.09-47.49-54.09-18.68,0-31.51,9.33-38.91,22.95"/>
        <path class="cls-2" d="M1965.4,1518.97c0,10.1-7.94,18.02-18.25,18.02s-18.35-7.94-18.35-18.02,8.14-17.81,18.35-17.81,18.25,7.94,18.25,17.81ZM1933.37,1518.97c0,7.94,5.85,14.23,13.89,14.23s13.58-6.29,13.58-14.12-5.75-14.33-13.68-14.33-13.79,6.41-13.79,14.23ZM1944.34,1528.3h-4.12v-17.81c1.62-.33,3.92-.54,6.83-.54,3.37,0,4.89.54,6.19,1.31.98.75,1.73,2.17,1.73,3.92,0,1.96-1.52,3.48-3.69,4.12v.21c1.73.65,2.71,1.96,3.25,4.33.54,2.71.87,3.79,1.31,4.46h-4.46c-.54-.65-.87-2.27-1.42-4.33-.33-1.96-1.42-2.83-3.69-2.83h-1.96v7.16h.02ZM1944.45,1518.2h1.96c2.27,0,4.12-.75,4.12-2.6,0-1.62-1.19-2.71-3.79-2.71-1.08,0-1.85.1-2.27.21v5.1h-.02Z"/>
      </g>
      <g id="logo-supported-by">
        <path class="cls-2" d="M643.74,1248.21c0,12-4.08,21.06-12.27,27.2-8.19,6.12-19.91,9.21-35.22,9.21-8.31,0-15.54-.44-21.66-1.33-6.12-.9-12.39-2.52-18.79-4.89v-30.95c6,2.65,12.58,4.81,19.72,6.52,7.14,1.71,13.54,2.56,19.14,2.56,8.37,0,12.56-1.92,12.56-5.73,0-1.98-1.17-3.75-3.52-5.29-2.33-1.54-9.14-4.56-20.43-9.04-10.29-4.23-17.47-9.02-21.56-14.39s-6.12-12.18-6.12-20.43c0-10.41,4.02-18.54,12.06-24.33,8.04-5.81,19.41-8.71,34.12-8.71,7.39,0,14.33.81,20.83,2.42,6.5,1.62,13.25,3.98,20.22,7.08l-10.48,24.93c-5.14-2.31-10.58-4.27-16.33-5.89-5.73-1.6-10.41-2.42-14.04-2.42-6.33,0-9.5,1.54-9.5,4.64,0,1.92,1.1,3.54,3.31,4.89,2.21,1.35,8.58,4.1,19.14,8.25,7.85,3.23,13.7,6.39,17.56,9.5,3.85,3.1,6.69,6.75,8.5,10.93s2.73,9.29,2.73,15.29l.02-.02Z"/>
        <path class="cls-2" d="M745.03,1282.64l-4.85-13.95h-2.27c-3.23,5.14-7.73,9.08-13.5,11.81-5.77,2.73-12.54,4.1-20.33,4.1-12.33,0-21.93-3.58-28.78-10.73-6.85-7.14-10.29-17.27-10.29-30.3v-72.98h38.68v61.21c0,7.31,1.04,12.85,3.12,16.62,2.08,3.75,5.5,5.64,10.25,5.64,6.66,0,11.41-2.62,14.25-7.87,2.83-5.25,4.25-14.1,4.25-26.56v-49.05h38.68v112.05h-29.2Z"/>
        <path class="cls-2" d="M868.16,1284.62c-5.67,0-10.75-.94-15.22-2.81s-8.94-5.25-13.35-10.14h-1.77c1.19,7.85,1.77,12.73,1.77,14.64v45.01h-38.68v-160.73h31.45l5.44,14.25h1.77c7.19-10.81,17.12-16.22,29.76-16.22s22.12,5.14,29.18,15.43,10.58,24.39,10.58,42.32-3.69,32.28-11.02,42.68c-7.35,10.39-17.33,15.58-29.93,15.58h.02ZM855.21,1198.98c-5.67,0-9.64,2.02-11.91,6.08-2.27,4.06-3.52,10.08-3.71,18.06v3.06c0,9.62,1.29,16.58,3.85,20.87,2.56,4.29,6.62,6.44,12.16,6.44,4.94,0,8.54-2.12,10.79-6.37,2.25-4.25,3.35-11.29,3.35-21.12s-1.12-16.54-3.35-20.72c-2.25-4.19-5.98-6.29-11.18-6.29Z"/>
        <path class="cls-2" d="M998.42,1284.62c-5.67,0-10.75-.94-15.22-2.81s-8.94-5.25-13.35-10.14h-1.77c1.19,7.85,1.77,12.73,1.77,14.64v45.01h-38.68v-160.73h31.45l5.44,14.25h1.77c7.19-10.81,17.12-16.22,29.76-16.22s22.12,5.14,29.18,15.43c7.06,10.29,10.58,24.39,10.58,42.32s-3.69,32.28-11.02,42.68c-7.35,10.39-17.33,15.58-29.93,15.58h.02ZM985.46,1198.98c-5.67,0-9.64,2.02-11.91,6.08-2.27,4.06-3.52,10.08-3.71,18.06v3.06c0,9.62,1.29,16.58,3.85,20.87,2.56,4.29,6.62,6.44,12.16,6.44,4.94,0,8.54-2.12,10.79-6.37,2.25-4.25,3.35-11.29,3.35-21.12s-1.12-16.54-3.35-20.72c-2.25-4.19-5.98-6.29-11.18-6.29Z"/>
        <path class="cls-2" d="M1168.43,1226.37c0,18.33-4.94,32.62-14.79,42.88-9.85,10.25-23.66,15.37-41.38,15.37s-30.55-5.25-40.59-15.72c-10.06-10.48-15.08-24.66-15.08-42.53s4.94-32.45,14.79-42.57c9.85-10.12,23.68-15.18,41.49-15.18,11.02,0,20.74,2.33,29.18,7.02,8.44,4.69,14.95,11.39,19.54,20.12,4.58,8.75,6.87,18.93,6.87,30.62h-.02ZM1095.83,1226.37c0,9.62,1.29,16.95,3.85,22.01,2.56,5.04,6.89,7.56,12.95,7.56s10.25-2.52,12.7-7.56c2.48-5.04,3.71-12.37,3.71-22.01s-1.25-16.79-3.75-21.66c-2.5-4.87-6.79-7.31-12.85-7.31s-10.18,2.42-12.77,7.27c-2.56,4.85-3.85,12.08-3.85,21.7Z"/>
        <path class="cls-2" d="M1258.14,1168.61c3.35,0,6.56.27,9.6.79l2.17.4-3.46,36.49c-3.17-.79-7.56-1.19-13.16-1.19-8.44,0-14.58,1.94-18.39,5.79-3.83,3.85-5.73,9.41-5.73,16.66v55.09h-38.68v-112.05h28.78l6.04,17.91h1.87c3.23-5.94,7.73-10.73,13.5-14.39,5.77-3.67,11.58-5.5,17.45-5.5Z"/>
        <path class="cls-2" d="M1340.43,1254.07c5.21,0,11.43-1.29,18.7-3.85v28.18c-5.21,2.25-10.16,3.83-14.89,4.79-4.71.96-10.25,1.44-16.56,1.44-13,0-22.35-3.19-28.1-9.54-5.73-6.35-8.6-16.14-8.6-29.33v-46.2h-13.56v-15.72l17.2-12.16,10-23.54h25.33v22.45h27.49v28.97h-27.49v43.61c0,7.25,3.5,10.87,10.48,10.87v.02Z"/>
        <path class="cls-2" d="M1432.8,1284.62c-18.66,0-33.16-4.96-43.47-14.89-10.33-9.91-15.47-24.06-15.47-42.38s4.77-33.45,14.35-43.57c9.56-10.12,23.2-15.18,40.95-15.18s29.93,4.39,39.11,13.2c9.21,8.81,13.79,21.47,13.79,38.03v17.2h-69.13c.27,6.27,2.56,11.18,6.87,14.75,4.31,3.56,10.21,5.33,17.66,5.33,6.79,0,13.04-.65,18.74-1.94s11.89-3.48,18.54-6.58v27.78c-6.06,3.1-12.33,5.25-18.79,6.44-6.46,1.19-14.18,1.77-23.14,1.77l-.02.04ZM1430.53,1194.92c-4.54,0-8.35,1.44-11.41,4.31-3.06,2.87-4.85,7.37-5.39,13.5h33.24c-.12-5.42-1.67-9.73-4.6-12.95-2.94-3.23-6.87-4.85-11.81-4.85h-.02Z"/>
        <path class="cls-2" d="M1538.73,1284.62c-7.98,0-14.95-2.27-20.91-6.83-5.98-4.54-10.58-11.25-13.85-20.08s-4.89-19.16-4.89-30.95c0-18.2,3.67-32.45,10.98-42.72,7.31-10.29,17.37-15.43,30.16-15.43,6.27,0,11.75,1.25,16.47,3.75,4.71,2.5,9.02,6.73,12.91,12.66h.79c-1.25-8.77-1.87-17.54-1.87-26.31v-29.97h38.97v153.9h-29.18l-8.31-14.14h-1.48c-6.66,10.75-16.58,16.12-29.76,16.12h-.02ZM1554.55,1254.07c6.21,0,10.56-1.94,13.1-5.83s3.92-9.89,4.1-18v-3.06c0-9.89-1.42-16.93-4.25-21.12-2.83-4.19-7.29-6.29-13.35-6.29-5.08,0-9.02,2.4-11.81,7.16s-4.21,11.58-4.21,20.43,1.42,15.33,4.25,19.87c2.83,4.54,6.89,6.83,12.16,6.83Z"/>
        <path class="cls-2" d="M1755.23,1168.61c12.2,0,21.87,5.1,29.03,15.33,7.14,10.23,10.73,24.37,10.73,42.43s-3.6,32.45-10.83,42.78c-7.23,10.33-17.27,15.47-30.12,15.47-4.17,0-7.85-.44-11.08-1.33s-6.12-2.12-8.66-3.71-5.5-4.23-8.85-7.91h-2.37l-6.12,10.98h-30.16v-153.9h38.68v34.82c0,4.14-.46,11.31-1.4,21.45h1.4c3.75-5.81,8.1-10,13-12.56,4.92-2.56,10.5-3.85,16.77-3.85ZM1741.09,1198.98c-5.42,0-9.37,1.87-11.87,5.64s-3.75,9.66-3.75,17.7v5.44c0,9.16,1.25,15.75,3.75,19.72,2.5,4,6.6,5.98,12.27,5.98,4.54,0,8.04-2.33,10.48-6.98,2.44-4.64,3.67-11.5,3.67-20.52,0-18-4.85-26.99-14.54-26.99h0Z"/>
        <path class="cls-2" d="M1803.49,1170.59h40.74l18.99,64.29c.92,3.35,1.54,7.41,1.87,12.16h.79c.52-4.54,1.31-8.54,2.37-11.98l19.49-64.48h39.47l-44.3,119.18c-5.67,15.16-12.64,25.89-20.91,32.14-8.27,6.27-19.08,9.39-32.39,9.39-5.14,0-10.41-.56-15.83-1.69v-30.37c3.5.79,7.48,1.19,11.98,1.19,3.44,0,6.44-.67,9-1.98s4.81-3.19,6.73-5.58c1.92-2.42,3.96-6.35,6.12-11.81l-44.11-110.47h-.02Z"/>
      </g>
    </g>
  </g>
</svg>